<svg width="64" height="64" viewBox="0 0 64 64" fill="none" xmlns="http://www.w3.org/2000/svg">
<path d="M0 32C0 14.3269 14.3269 0 32 0C49.6731 0 64 14.3269 64 32C64 49.6731 49.6731 64 32 64C14.3269 64 0 49.6731 0 32Z" fill="#E5E7EB"/>
<path d="M44.8002 46.4V43.2C44.8002 41.5026 44.1259 39.8747 42.9257 38.6745C41.7254 37.4743 40.0976 36.8 38.4002 36.8H25.6002C23.9028 36.8 22.2749 37.4743 21.0747 38.6745C19.8745 39.8747 19.2002 41.5026 19.2002 43.2V46.4" stroke="#111827" stroke-width="2.56" stroke-linecap="round" stroke-linejoin="round"/>
<path d="M31.9996 30.4C35.5342 30.4 38.3996 27.5346 38.3996 24C38.3996 20.4654 35.5342 17.6 31.9996 17.6C28.465 17.6 25.5996 20.4654 25.5996 24C25.5996 27.5346 28.465 30.4 31.9996 30.4Z" stroke="#111827" stroke-width="2.56" stroke-linecap="round" stroke-linejoin="round"/>
</svg>
